<svg xmlns="http://www.w3.org/2000/svg" x="0px" y="0px" width="200" height="200" viewBox="0 0 50 50">
  <path d="M 25 1 A 2.5 2.5 0 0 0 22.509766 3.2851562 L 7.2539062 12.119141 A 2.5 2.5 0 0 0 6.5 12 A 2.5 2.5 0 0 0 5 16.498047 L 5 33.503906 A 2.5 2.5 0 0 0 6.5 38 A 2.5 2.5 0 0 0 7.2558594 37.882812 L 22.513672 46.716797 A 2.5 2.5 0 0 0 25 49 A 2.5 2.5 0 0 0 27.490234 46.714844 L 42.746094 37.880859 A 2.5 2.5 0 0 0 43.5 38 A 2.5 2.5 0 0 0 45 33.501953 L 45 16.496094 A 2.5 2.5 0 0 0 43.5 12 A 2.5 2.5 0 0 0 42.744141 12.117188 L 27.486328 3.2832031 A 2.5 2.5 0 0 0 25 1 z M 22.265625 5.7402344 L 15.130859 18.128906 L 8.9960938 14.578125 A 2.5 2.5 0 0 0 8.8027344 13.533203 L 22.265625 5.7402344 z M 27.734375 5.7402344 L 41.197266 13.533203 A 2.5 2.5 0 0 0 41.001953 14.580078 L 34.869141 18.128906 L 27.734375 5.7402344 z M 8.1347656 16.390625 L 14.134766 19.865234 L 15.136719 18.134766 L 23.519531 22.990234 C 23.939531 22.690234 24.45 22.5 25 22.5 C 25.55 22.5 26.060469 22.690234 26.480469 22.990234 L 34.863281 18.134766 L 35.865234 19.865234 L 41.867188 16.390625 A 2.5 2.5 0 0 0 43 16.947266 L 43 32.253906 L 35.869141 19.869141 L 27.470703 24.720703 C 27.480703 24.820703 27.5 24.91 27.5 25 C 27.5 26.02 26.88 26.899062 26 27.289062 L 26 37 L 40.275391 37 L 26.822266 44.789062 A 2.5 2.5 0 0 0 26 44.210938 L 26 37 L 24 37 L 24 44.210938 A 2.5 2.5 0 0 0 23.177734 44.789062 L 9.7246094 37 L 24 37 L 24 27.289062 C 23.12 26.899062 22.5 26.02 22.5 25 C 22.5 24.91 22.519297 24.820703 22.529297 24.720703 L 14.130859 19.869141 L 7 32.253906 L 7 16.949219 A 2.5 2.5 0 0 0 8.1347656 16.390625 z" fill="#1890ff"/>
</svg> 